<?xml version="1.0" encoding="UTF-8"?>
<svg id="Layer_2" data-name="Layer 2" xmlns="http://www.w3.org/2000/svg" viewBox="0 0 16.03 16.03">
  <defs>
    <style>
      .cls-1 {
        fill: #d9d9d9;
      }
    </style>
  </defs>
  <g id="Layer_1-2" data-name="Layer 1">
    <path class="cls-1" d="m16.01,7.48c-.02-.36-.07-.72-.14-1.07-.08-.37-.18-.72-.3-1.07-.13-.37-.29-.72-.47-1.07-.05-.09-.09-.17-.14-.26-.16-.28-.34-.56-.54-.81-.17-.22-.35-.44-.54-.64-.14-.15-.28-.29-.43-.43-.2-.19-.42-.37-.64-.54-.26-.19-.53-.37-.81-.53-.08-.05-.17-.1-.26-.15-.34-.18-.7-.34-1.07-.47-.35-.12-.7-.22-1.07-.3-.35-.07-.7-.12-1.07-.14-.18-.01-.36-.02-.54-.02s-.36,0-.53.02c-.37.02-.72.07-1.07.14-.37.08-.72.17-1.07.3-.37.13-.73.29-1.07.47-.09.04-.17.09-.26.14-.28.16-.55.34-.81.53-.22.17-.44.35-.64.54-.15.14-.29.28-.43.43-.19.2-.37.42-.54.64-.2.26-.37.53-.54.81-.05.08-.1.17-.14.26-.18.34-.34.7-.47,1.07-.12.35-.22.7-.3,1.07-.07.35-.12.7-.14,1.07-.01.18-.02.36-.02.54s0,.36.02.54c.02.36.07.72.14,1.07.08.37.17.72.3,1.07.13.37.29.73.47,1.07.04.09.09.17.14.25.16.28.34.56.54.81.17.23.35.44.54.64.14.15.28.29.43.43.2.19.42.37.64.54.26.19.53.37.81.53.09.05.17.1.26.14.34.18.7.34,1.07.47.35.12.7.22,1.07.3.35.07.7.12,1.07.14.18.01.35.02.53.02s.36,0,.54-.02c.37-.02.72-.07,1.07-.14.37-.08.72-.18,1.07-.3.37-.13.72-.29,1.07-.47.09-.05.18-.09.26-.15.28-.16.55-.34.81-.53.22-.17.44-.35.64-.54.15-.14.29-.28.43-.43.19-.2.37-.42.54-.64.2-.26.38-.53.54-.81.05-.08.1-.17.14-.25.18-.34.34-.7.47-1.07.12-.35.22-.7.3-1.07.07-.35.12-.7.14-1.07.01-.18.02-.36.02-.54s0-.36-.02-.54Zm-1.07,1.07c-.02.37-.08.72-.16,1.07-.09.37-.2.72-.35,1.07-.15.36-.33.7-.54,1.03,0,.01-.01.03-.03.04-.24.38-.52.74-.84,1.07-.06.07-.13.14-.2.2-.33.32-.68.6-1.07.84-.01,0-.03.02-.04.03-.32.21-.67.39-1.02.54-.34.14-.7.26-1.07.34-.35.09-.7.14-1.07.17-.18.02-.36.02-.54.02s-.36,0-.53-.02c-.37-.02-.72-.08-1.07-.16-.37-.09-.72-.2-1.07-.35-.36-.15-.7-.33-1.02-.54-.02,0-.03-.02-.05-.03-.38-.24-.74-.52-1.07-.84-.07-.06-.14-.13-.2-.2-.32-.33-.6-.68-.84-1.07-.01-.01-.02-.03-.03-.04-.21-.33-.39-.67-.54-1.03-.14-.34-.26-.7-.35-1.07-.08-.35-.14-.7-.16-1.07-.02-.18-.02-.36-.02-.54s0-.36.02-.54c.02-.37.08-.72.16-1.07.09-.37.2-.73.35-1.07.15-.36.33-.7.54-1.03,0-.01.01-.03.03-.04.24-.39.53-.74.84-1.07.06-.07.13-.14.2-.2.33-.32.68-.6,1.07-.84.01-.01.03-.02.05-.03.32-.21.67-.39,1.02-.54.34-.14.7-.26,1.07-.35.35-.08.7-.14,1.07-.16v-.02h1.07v.02c.37.02.72.08,1.07.17.37.08.72.2,1.07.34.36.15.7.33,1.02.54.02,0,.03.02.04.03.39.24.74.53,1.07.84.07.06.13.13.2.2.32.33.6.68.84,1.07.01.01.02.03.03.04.21.32.39.67.54,1.03.14.34.26.7.35,1.07.08.35.14.7.16,1.07.02.18.02.36.02.54s0,.36-.02.54Z"/>
    <path class="cls-1" d="m13.67,6.41c-.1-.37-.25-.73-.42-1.07-.13-.25-.27-.48-.43-.7-.09-.13-.18-.25-.28-.36-.24-.29-.5-.56-.79-.79-.12-.1-.24-.19-.37-.28-.22-.16-.46-.3-.7-.43v10.47c.25-.13.49-.27.71-.43.12-.09.25-.18.36-.28v-4h1.07v2.84c.16-.22.3-.46.43-.7.17-.34.32-.69.42-1.07.1-.35.17-.7.2-1.07.02-.18.02-.36.02-.54s0-.36-.02-.54c-.03-.37-.1-.72-.2-1.07Zm-1.92,1.07v-2.48c.09.11.18.23.26.35.22.33.4.69.54,1.07.12.34.21.7.25,1.07h-1.04Z"/>
    <path class="cls-1" d="m8.01,2.14c-.18,0-.36,0-.53.02-.37.03-.72.1-1.07.2v6.19h2.14v4.24c-.18.02-.35.03-.54.03s-.36,0-.53-.03v-3.18h-1.07v4.05c.35.1.7.17,1.07.2.18.02.35.02.53.02s.36,0,.54-.02c.37-.03.72-.1,1.07-.2v-6.19h-2.14V3.24c.18-.02.35-.03.53-.03s.36,0,.54.03v3.18h1.07V2.36c-.35-.1-.7-.17-1.07-.2-.18-.02-.36-.02-.54-.02Z"/>
    <path class="cls-1" d="m4.27,3.48v4h-1.07v-2.84c-.16.22-.3.46-.43.7-.17.34-.32.7-.42,1.07-.1.34-.17.7-.2,1.07-.02.18-.02.36-.02.54s0,.36.02.54c.03.37.1.72.2,1.07.1.37.25.73.42,1.07.12.25.27.48.43.7v-2.84h1.07v4c.11.1.24.19.36.28.23.16.46.3.71.43V2.78c-.25.12-.48.27-.7.43-.13.09-.25.18-.37.28Z"/>
  </g>
</svg>